<svg width="107" height="21" viewBox="0 0 107 21" fill="none" xmlns="http://www.w3.org/2000/svg">
<path d="M6.0401 10.968L3.3761 13.704V18H0.256104V1.19996H3.3761V9.81596L11.6801 1.19996H15.1841L8.1281 8.71196L15.6161 18H11.9681L6.0401 10.968Z" fill="#333333"/>
<path d="M32.0261 1.19996V18H29.0261V15.864C27.8901 17.448 26.1301 18.24 23.7461 18.24C21.7621 18.24 20.2021 17.624 19.0661 16.392C17.9301 15.144 17.3621 13.384 17.3621 11.112V1.19996H20.4821V10.992C20.4821 12.48 20.8341 13.608 21.5381 14.376C22.2581 15.128 23.2421 15.504 24.4901 15.504C25.8341 15.504 26.9061 15.104 27.7061 14.304C28.5061 13.488 28.9061 12.28 28.9061 10.68V1.19996H32.0261Z" fill="#333333"/>
<path d="M41.7454 18.24C40.4494 18.24 39.1934 18.056 37.9774 17.688C36.7774 17.32 35.8254 16.832 35.1214 16.224L36.2014 13.8C36.8894 14.344 37.7294 14.792 38.7214 15.144C39.7294 15.48 40.7374 15.648 41.7454 15.648C42.9934 15.648 43.9214 15.448 44.5294 15.048C45.1534 14.648 45.4654 14.12 45.4654 13.464C45.4654 12.984 45.2894 12.592 44.9374 12.288C44.6014 11.968 44.1694 11.72 43.6414 11.544C43.1134 11.368 42.3934 11.168 41.4814 10.944C40.2014 10.64 39.1614 10.336 38.3614 10.032C37.5774 9.72796 36.8974 9.25596 36.3214 8.61596C35.7614 7.95996 35.4814 7.07996 35.4814 5.97596C35.4814 5.04796 35.7294 4.20796 36.2254 3.45596C36.7374 2.68796 37.4974 2.07996 38.5054 1.63196C39.5294 1.18396 40.7774 0.959961 42.2494 0.959961C43.2734 0.959961 44.2814 1.08796 45.2734 1.34396C46.2654 1.59996 47.1214 1.96796 47.8414 2.44796L46.8574 4.87196C46.1214 4.43996 45.3534 4.11196 44.5534 3.88796C43.7534 3.66396 42.9774 3.55196 42.2254 3.55196C40.9934 3.55196 40.0734 3.75996 39.4654 4.17596C38.8734 4.59196 38.5774 5.14396 38.5774 5.83196C38.5774 6.31196 38.7454 6.70396 39.0814 7.00796C39.4334 7.31196 39.8734 7.55196 40.4014 7.72796C40.9294 7.90396 41.6494 8.10396 42.5614 8.32796C43.8094 8.61596 44.8334 8.91996 45.6334 9.23996C46.4334 9.54396 47.1134 10.016 47.6734 10.656C48.2494 11.296 48.5374 12.16 48.5374 13.248C48.5374 14.176 48.2814 15.016 47.7694 15.768C47.2734 16.52 46.5134 17.12 45.4894 17.568C44.4654 18.016 43.2174 18.24 41.7454 18.24Z" fill="#333333"/>
<path d="M66.1271 1.19996V12.864C66.1271 15.344 65.4471 17.248 64.0871 18.576C62.7431 19.904 60.8791 20.568 58.4951 20.568C57.0871 20.568 55.8071 20.36 54.6551 19.944C53.5031 19.544 52.5271 18.968 51.7271 18.216L52.9991 15.816C54.4871 17.16 56.3031 17.832 58.4471 17.832C61.4871 17.832 63.0071 16.224 63.0071 13.008V11.736C61.8711 13.176 60.2231 13.896 58.0631 13.896C55.9351 13.896 54.2871 13.288 53.1191 12.072C51.9511 10.856 51.3671 9.11196 51.3671 6.83996V1.19996H54.4871V6.69596C54.4871 8.16796 54.8391 9.28796 55.5431 10.056C56.2631 10.808 57.2631 11.184 58.5431 11.184C59.9031 11.184 60.9831 10.784 61.7831 9.98396C62.5991 9.16796 63.0071 7.96796 63.0071 6.38396V1.19996H66.1271Z" fill="#333333"/>
<path d="M70.9828 18.168C70.4388 18.168 69.9748 17.984 69.5908 17.616C69.2068 17.232 69.0148 16.752 69.0148 16.176C69.0148 15.584 69.1988 15.104 69.5668 14.736C69.9508 14.368 70.4228 14.184 70.9828 14.184C71.5428 14.184 72.0068 14.368 72.3748 14.736C72.7588 15.104 72.9508 15.584 72.9508 16.176C72.9508 16.752 72.7588 17.232 72.3748 17.616C71.9908 17.984 71.5268 18.168 70.9828 18.168Z" fill="#333333"/>
<path d="M83.0822 1.19996C84.5382 1.19996 85.8022 1.43996 86.8742 1.91996C87.9622 2.39996 88.7942 3.08796 89.3702 3.98396C89.9462 4.87996 90.2342 5.94396 90.2342 7.17596C90.2342 8.39196 89.9462 9.45596 89.3702 10.368C88.7942 11.264 87.9622 11.952 86.8742 12.432C85.8022 12.912 84.5382 13.152 83.0822 13.152H79.2902V18H76.1702V1.19996H83.0822ZM82.9382 10.512C84.2982 10.512 85.3302 10.224 86.0342 9.64796C86.7382 9.07196 87.0902 8.24796 87.0902 7.17596C87.0902 6.10396 86.7382 5.27996 86.0342 4.70396C85.3302 4.12796 84.2982 3.83996 82.9382 3.83996H79.2902V10.512H82.9382Z" fill="#333333"/>
<path d="M106.571 16.392C105.819 16.984 104.851 17.44 103.667 17.76C102.483 18.08 101.203 18.24 99.827 18.24C98.211 18.24 96.835 18.032 95.699 17.616C94.579 17.2 93.731 16.624 93.155 15.888C92.579 15.152 92.291 14.304 92.291 13.344C92.291 12.416 92.547 11.608 93.059 10.92C93.571 10.232 94.259 9.72796 95.123 9.40796C94.467 9.05596 93.947 8.56796 93.563 7.94396C93.195 7.30396 93.011 6.59196 93.011 5.80796C93.011 4.91196 93.275 4.10396 93.803 3.38396C94.347 2.64796 95.155 2.06396 96.227 1.63196C97.299 1.18396 98.619 0.959961 100.187 0.959961C101.243 0.959961 102.275 1.07196 103.283 1.29596C104.291 1.51996 105.171 1.82396 105.923 2.20796L105.035 4.67996C103.627 3.94396 102.051 3.57596 100.307 3.57596C98.931 3.57596 97.891 3.79996 97.187 4.24796C96.499 4.67996 96.155 5.26396 96.155 5.99996C96.155 6.71996 96.411 7.27196 96.923 7.65596C97.435 8.02396 98.187 8.20796 99.179 8.20796H103.619V10.8H99.011C97.875 10.8 96.995 11 96.371 11.4C95.747 11.784 95.435 12.36 95.435 13.128C95.435 13.896 95.811 14.504 96.563 14.952C97.315 15.4 98.451 15.624 99.971 15.624C101.027 15.624 102.051 15.48 103.043 15.192C104.051 14.904 104.891 14.504 105.563 13.992L106.571 16.392Z" fill="#333333"/>
</svg>
