<svg width="107" height="20" viewBox="0 0 107 20" fill="none" xmlns="http://www.w3.org/2000/svg">
<path d="M5.784 10.008L3.12 12.744V17.04H0V0.24H3.12V8.856L11.424 0.24H14.928L7.872 7.752L15.36 17.04H11.712L5.784 10.008Z" fill="white"/>
<path d="M31.77 0.24V17.04H28.77V14.904C27.634 16.488 25.874 17.28 23.49 17.28C21.506 17.28 19.946 16.664 18.81 15.432C17.674 14.184 17.106 12.424 17.106 10.152V0.24H20.226V10.032C20.226 11.52 20.578 12.648 21.282 13.416C22.002 14.168 22.986 14.544 24.234 14.544C25.578 14.544 26.65 14.144 27.45 13.344C28.25 12.528 28.65 11.32 28.65 9.72V0.24H31.77Z" fill="white"/>
<path d="M41.4893 17.28C40.1932 17.28 38.9372 17.096 37.7212 16.728C36.5212 16.36 35.5692 15.872 34.8652 15.264L35.9453 12.84C36.6333 13.384 37.4732 13.832 38.4652 14.184C39.4732 14.52 40.4813 14.688 41.4893 14.688C42.7373 14.688 43.6653 14.488 44.2733 14.088C44.8973 13.688 45.2093 13.16 45.2093 12.504C45.2093 12.024 45.0333 11.632 44.6813 11.328C44.3453 11.008 43.9132 10.76 43.3853 10.584C42.8573 10.408 42.1373 10.208 41.2253 9.984C39.9453 9.68 38.9053 9.376 38.1053 9.072C37.3213 8.768 36.6413 8.296 36.0653 7.656C35.5053 7 35.2253 6.12 35.2253 5.016C35.2253 4.088 35.4732 3.248 35.9692 2.496C36.4812 1.728 37.2412 1.12 38.2492 0.672C39.2732 0.224 40.5213 0 41.9933 0C43.0173 0 44.0252 0.128 45.0173 0.384001C46.0093 0.64 46.8653 1.008 47.5853 1.488L46.6012 3.912C45.8652 3.48 45.0972 3.152 44.2972 2.928C43.4972 2.704 42.7212 2.592 41.9692 2.592C40.7372 2.592 39.8173 2.8 39.2093 3.216C38.6173 3.632 38.3213 4.184 38.3213 4.872C38.3213 5.352 38.4892 5.744 38.8252 6.048C39.1772 6.352 39.6173 6.592 40.1453 6.768C40.6733 6.944 41.3933 7.144 42.3053 7.368C43.5533 7.656 44.5773 7.96 45.3773 8.28C46.1773 8.584 46.8573 9.056 47.4173 9.696C47.9933 10.336 48.2812 11.2 48.2812 12.288C48.2812 13.216 48.0253 14.056 47.5133 14.808C47.0173 15.56 46.2572 16.16 45.2332 16.608C44.2092 17.056 42.9613 17.28 41.4893 17.28Z" fill="white"/>
<path d="M65.871 0.24V11.904C65.871 14.384 65.191 16.288 63.831 17.616C62.487 18.944 60.623 19.608 58.239 19.608C56.831 19.608 55.551 19.4 54.399 18.984C53.247 18.584 52.271 18.008 51.471 17.256L52.743 14.856C54.231 16.2 56.047 16.872 58.191 16.872C61.231 16.872 62.751 15.264 62.751 12.048V10.776C61.615 12.216 59.967 12.936 57.807 12.936C55.679 12.936 54.031 12.328 52.863 11.112C51.695 9.896 51.111 8.152 51.111 5.88V0.24H54.231V5.736C54.231 7.208 54.583 8.328 55.287 9.096C56.007 9.848 57.007 10.224 58.287 10.224C59.647 10.224 60.727 9.824 61.527 9.024C62.343 8.208 62.751 7.008 62.751 5.424V0.24H65.871Z" fill="white"/>
<path d="M70.7267 17.208C70.1827 17.208 69.7187 17.024 69.3347 16.656C68.9507 16.272 68.7587 15.792 68.7587 15.216C68.7587 14.624 68.9427 14.144 69.3107 13.776C69.6947 13.408 70.1667 13.224 70.7267 13.224C71.2867 13.224 71.7507 13.408 72.1187 13.776C72.5027 14.144 72.6947 14.624 72.6947 15.216C72.6947 15.792 72.5027 16.272 72.1187 16.656C71.7347 17.024 71.2707 17.208 70.7267 17.208Z" fill="white"/>
<path d="M82.8261 0.24C84.2821 0.24 85.5461 0.48 86.6181 0.960001C87.7061 1.44 88.5381 2.128 89.1141 3.024C89.6901 3.92 89.9781 4.984 89.9781 6.216C89.9781 7.432 89.6901 8.496 89.1141 9.408C88.5381 10.304 87.7061 10.992 86.6181 11.472C85.5461 11.952 84.2821 12.192 82.8261 12.192H79.0341V17.04H75.9141V0.24H82.8261ZM82.6821 9.552C84.0421 9.552 85.0741 9.264 85.7781 8.688C86.4821 8.112 86.8341 7.288 86.8341 6.216C86.8341 5.144 86.4821 4.32 85.7781 3.744C85.0741 3.168 84.0421 2.88 82.6821 2.88H79.0341V9.552H82.6821Z" fill="white"/>
<path d="M106.315 15.432C105.563 16.024 104.595 16.48 103.411 16.8C102.227 17.12 100.947 17.28 99.5709 17.28C97.9549 17.28 96.5789 17.072 95.4429 16.656C94.3229 16.24 93.4749 15.664 92.8989 14.928C92.3229 14.192 92.0349 13.344 92.0349 12.384C92.0349 11.456 92.2909 10.648 92.8029 9.96C93.3149 9.272 94.0029 8.768 94.8669 8.448C94.2109 8.096 93.6909 7.608 93.3069 6.984C92.9389 6.344 92.7549 5.632 92.7549 4.848C92.7549 3.952 93.0189 3.144 93.5469 2.424C94.0909 1.688 94.8989 1.104 95.9709 0.672C97.0429 0.224 98.3629 0 99.9309 0C100.987 0 102.019 0.112 103.027 0.336C104.035 0.56 104.915 0.864 105.667 1.248L104.779 3.72C103.371 2.984 101.795 2.616 100.051 2.616C98.6749 2.616 97.6349 2.84 96.9309 3.288C96.2429 3.72 95.8989 4.304 95.8989 5.04C95.8989 5.76 96.1549 6.312 96.6669 6.696C97.1789 7.064 97.9309 7.248 98.9229 7.248H103.363V9.84H98.7549C97.6189 9.84 96.7389 10.04 96.1149 10.44C95.4909 10.824 95.1789 11.4 95.1789 12.168C95.1789 12.936 95.5549 13.544 96.3069 13.992C97.0589 14.44 98.1949 14.664 99.7149 14.664C100.771 14.664 101.795 14.52 102.787 14.232C103.795 13.944 104.635 13.544 105.307 13.032L106.315 15.432Z" fill="white"/>
</svg>
